<svg width="53" height="52" viewBox="0 0 53 52" fill="none" xmlns="http://www.w3.org/2000/svg">
<g filter="url(#filter0_d_2_829)">
<rect x="2" y="1" width="48.02" height="48" rx="12" fill="#2170E4" shape-rendering="crispEdges"/>
<path d="M19.2048 34.7222C18.67 34.7222 18.2123 34.5318 17.8315 34.151C17.4507 33.7702 17.2603 33.3124 17.2603 32.7777V21.8159C16.9686 21.6377 16.7337 21.4068 16.5554 21.1232C16.3772 20.8396 16.2881 20.5115 16.2881 20.1388V17.2222C16.2881 16.6874 16.4785 16.2297 16.8593 15.8489C17.2401 15.4681 17.6978 15.2777 18.2325 15.2777H33.7881C34.3228 15.2777 34.7806 15.4681 35.1614 15.8489C35.5421 16.2297 35.7325 16.6874 35.7325 17.2222V20.1388C35.7325 20.5115 35.6434 20.8396 35.4652 21.1232C35.2869 21.4068 35.052 21.6377 34.7603 21.8159V32.7777C34.7603 33.3124 34.5699 33.7702 34.1891 34.151C33.8083 34.5318 33.3506 34.7222 32.8159 34.7222H19.2048ZM19.2048 22.0833V32.7777H32.8159V22.0833H19.2048ZM18.2325 20.1388H33.7881V17.2222H18.2325V20.1388ZM23.0936 26.9444H28.927V24.9999H23.0936V26.9444Z" fill="#FEFCFF"/>
</g>
<defs>
<filter id="filter0_d_2_829" x="0" y="0" width="52.0195" height="52" filterUnits="userSpaceOnUse" color-interpolation-filters="sRGB">
<feFlood flood-opacity="0" result="BackgroundImageFix"/>
<feColorMatrix in="SourceAlpha" type="matrix" values="0 0 0 0 0 0 0 0 0 0 0 0 0 0 0 0 0 0 127 0" result="hardAlpha"/>
<feOffset dy="1"/>
<feGaussianBlur stdDeviation="1"/>
<feComposite in2="hardAlpha" operator="out"/>
<feColorMatrix type="matrix" values="0 0 0 0 0 0 0 0 0 0 0 0 0 0 0 0 0 0 0.05 0"/>
<feBlend mode="normal" in2="BackgroundImageFix" result="effect1_dropShadow_2_829"/>
<feBlend mode="normal" in="SourceGraphic" in2="effect1_dropShadow_2_829" result="shape"/>
</filter>
</defs>
</svg>
